<svg width="129" height="42" viewBox="0 0 129 42" fill="none" xmlns="http://www.w3.org/2000/svg">
<g clip-path="url(#clip0_918_349)">
<path d="M14.863 31.74L14.843 31.56C15.403 31.5067 15.8496 31.0467 16.183 30.18C16.5163 29.3133 16.683 28.1733 16.683 26.76V14.8C16.683 14.32 16.5363 13.9333 16.243 13.64C15.9496 13.3467 15.563 13.2 15.083 13.2H15.043V13H21.323V13.2H21.303C20.823 13.2 20.4363 13.3467 20.143 13.64C19.8496 13.9333 19.703 14.32 19.703 14.8V26.76C19.703 27.6667 19.4963 28.48 19.083 29.2C18.683 29.92 18.1163 30.5 17.383 30.94C16.663 31.38 15.823 31.6467 14.863 31.74ZM24.3005 28.28C23.4871 28.28 22.8338 28.06 22.3405 27.62C21.8471 27.18 21.6005 26.6 21.6005 25.88C21.6005 25.5733 21.6538 25.2867 21.7605 25.02C21.8671 24.74 22.0671 24.4667 22.3605 24.2C22.6671 23.9333 23.0871 23.66 23.6205 23.38C24.1538 23.0867 24.8605 22.78 25.7405 22.46L27.6005 21.78V20.28C27.6005 19.52 27.4805 18.92 27.2405 18.48C27.0005 18.0267 26.6671 17.8 26.2405 17.8C25.7338 17.8133 25.3005 18.1467 24.9405 18.8C24.5938 19.4533 24.3605 20.36 24.2405 21.52L22.0805 20.28C22.3071 19.7333 22.6538 19.2533 23.1205 18.84C23.5871 18.4267 24.1205 18.1067 24.7205 17.88C25.3338 17.6533 25.9738 17.54 26.6405 17.54C27.7738 17.54 28.6938 17.86 29.4005 18.5C30.1205 19.1267 30.4805 19.9867 30.4805 21.08V25.9C30.4805 26.6733 30.7405 27.06 31.2605 27.06C31.5671 27.06 31.8671 26.8933 32.1605 26.56L32.3205 26.7C31.9738 27.1667 31.5538 27.5467 31.0605 27.84C30.5671 28.1333 30.0871 28.28 29.6205 28.28C29.1138 28.28 28.6738 28.1067 28.3005 27.76C27.9405 27.4133 27.7138 26.9533 27.6205 26.38C26.9671 27.0467 26.3938 27.5333 25.9005 27.84C25.4205 28.1333 24.8871 28.28 24.3005 28.28ZM25.8005 27.04C26.0938 27.04 26.3738 26.9667 26.6405 26.82C26.9205 26.6733 27.2338 26.4333 27.5805 26.1L27.6005 22.04L26.8005 22.34C26.1205 22.5933 25.6005 22.8533 25.2405 23.12C24.8805 23.3733 24.6271 23.66 24.4805 23.98C24.3471 24.3 24.2805 24.6667 24.2805 25.08C24.2805 25.6533 24.4205 26.1267 24.7005 26.5C24.9938 26.86 25.3605 27.04 25.8005 27.04ZM31.533 32.48C30.9863 32.48 30.4596 32.3733 29.953 32.16L30.733 29.82C31.0663 29.9533 31.4263 30.0667 31.813 30.16C32.213 30.2533 32.613 30.3 33.013 30.3C33.5196 30.3 33.993 30.1933 34.433 29.98C34.8863 29.78 35.2263 29.4 35.453 28.84L35.673 28.3L31.713 19.12C31.5796 18.8 31.4063 18.5467 31.193 18.36C30.9663 18.16 30.6596 18.0533 30.273 18.04V17.84H36.053V18.04C35.693 18.08 35.413 18.2067 35.213 18.42C35.0263 18.6333 34.933 18.9067 34.933 19.24C34.933 19.5333 34.9996 19.8333 35.133 20.14L37.153 24.88L39.173 20.14C39.3063 19.8333 39.373 19.5333 39.373 19.24C39.373 18.9067 39.273 18.6333 39.073 18.42C38.8863 18.2067 38.6063 18.08 38.233 18.04V17.84H40.993V18.04C40.6863 18.1067 40.4263 18.3067 40.213 18.64C39.9996 18.96 39.773 19.4 39.533 19.96L35.453 29.44C35.0263 30.4267 34.473 31.18 33.793 31.7C33.113 32.22 32.3596 32.48 31.533 32.48ZM44.5588 28.28C43.8654 28.28 43.2988 28.06 42.8587 27.62C42.4188 27.18 42.1988 26.6067 42.1988 25.9V18.2H40.4988V17.94C41.4188 17.8733 42.2388 17.58 42.9588 17.06C43.6921 16.54 44.2921 15.84 44.7588 14.96H45.0788V17.84H47.7388L47.5388 18.2H45.0788V25.46C45.0788 26.5267 45.4388 27.06 46.1588 27.06C46.3988 27.06 46.6721 26.9867 46.9788 26.84C47.2988 26.6933 47.5988 26.5 47.8788 26.26V26.46C47.4388 27.02 46.9188 27.4667 46.3188 27.8C45.7188 28.12 45.1321 28.28 44.5588 28.28ZM47.683 28V27.8H47.703C48.183 27.8 48.5696 27.6533 48.863 27.36C49.1563 27.0667 49.303 26.68 49.303 26.2V19.64C49.303 19.1333 49.1963 18.74 48.983 18.46C48.783 18.18 48.3496 18.04 47.683 18.04V17.84H49.723C50.403 17.84 50.923 17.7667 51.283 17.62C51.6163 17.4733 51.8496 17.2933 51.983 17.08H52.183V26.2C52.183 26.68 52.3296 27.0667 52.623 27.36C52.9163 27.6533 53.303 27.8 53.783 27.8H53.803V28H47.683ZM50.723 15.82C50.243 15.82 49.843 15.6667 49.523 15.36C49.2163 15.04 49.063 14.64 49.063 14.16C49.063 13.68 49.2163 13.2867 49.523 12.98C49.843 12.66 50.243 12.5 50.723 12.5C51.1896 12.5 51.5763 12.66 51.883 12.98C52.203 13.3 52.363 13.6933 52.363 14.16C52.363 14.6267 52.203 15.02 51.883 15.34C51.5763 15.66 51.1896 15.82 50.723 15.82ZM53.6005 28V27.8H53.6205C54.1005 27.8 54.4871 27.6533 54.7805 27.36C55.0738 27.0667 55.2205 26.68 55.2205 26.2V19.64C55.2205 19.1333 55.1138 18.74 54.9005 18.46C54.7005 18.18 54.2671 18.04 53.6005 18.04V17.84H55.5805C56.2605 17.84 56.7805 17.7667 57.1405 17.62C57.4738 17.4733 57.7071 17.2933 57.8405 17.08H58.0405L58.0605 19.88C58.4071 19.1867 58.9338 18.6267 59.6405 18.2C60.3471 17.7733 61.0938 17.56 61.8805 17.56C62.7738 17.56 63.4871 17.8533 64.0205 18.44C64.5671 19.0267 64.8405 19.8 64.8405 20.76V26.2C64.8405 26.68 64.9871 27.0667 65.2805 27.36C65.5738 27.6533 65.9605 27.8 66.4405 27.8H66.4605V28H60.3605V27.8H60.3805C60.8605 27.8 61.2471 27.6533 61.5405 27.36C61.8338 27.0667 61.9805 26.68 61.9805 26.2V20.56C61.9805 19.8933 61.8471 19.36 61.5805 18.96C61.3271 18.56 60.9871 18.36 60.5605 18.36C60.1471 18.36 59.7138 18.54 59.2605 18.9C58.8205 19.2467 58.4338 19.72 58.1005 20.32V26.2C58.1005 26.68 58.2471 27.0667 58.5405 27.36C58.8338 27.6533 59.2205 27.8 59.7005 27.8H59.7205V28H53.6005ZM71.0675 28.24C70.1475 28.24 69.3275 28.0133 68.6075 27.56C67.9008 27.1067 67.3475 26.48 66.9475 25.68C66.5475 24.8667 66.3475 23.94 66.3475 22.9C66.3475 21.8333 66.5675 20.9 67.0075 20.1C67.4475 19.3 68.0475 18.68 68.8075 18.24C69.5808 17.7867 70.4542 17.56 71.4275 17.56C72.2408 17.56 72.9608 17.72 73.5875 18.04C74.2275 18.36 74.7342 18.8133 75.1075 19.4C75.4942 19.9733 75.7142 20.64 75.7675 21.4L75.7875 21.7H69.0675V21.8C69.0675 23.2133 69.3808 24.3467 70.0075 25.2C70.6342 26.04 71.4742 26.46 72.5275 26.46C73.1675 26.46 73.7742 26.3067 74.3475 26C74.9342 25.68 75.4075 25.2533 75.7675 24.72L75.9475 24.78C75.7208 25.46 75.3675 26.06 74.8875 26.58C74.4075 27.1 73.8408 27.5067 73.1875 27.8C72.5342 28.0933 71.8275 28.24 71.0675 28.24ZM69.0875 21.4H73.1475C73.1475 20.3467 72.9742 19.4933 72.6275 18.84C72.2942 18.1867 71.8208 17.86 71.2075 17.86C70.6208 17.86 70.1342 18.18 69.7475 18.82C69.3608 19.46 69.1408 20.32 69.0875 21.4ZM76.0419 28V27.8H76.0619C76.5419 27.8 76.9285 27.6533 77.2219 27.36C77.5152 27.0667 77.6619 26.68 77.6619 26.2V19.64C77.6619 19.1333 77.5552 18.74 77.3419 18.46C77.1419 18.18 76.7085 18.04 76.0419 18.04V17.84H78.0219C78.7019 17.84 79.2219 17.7667 79.5819 17.62C79.9152 17.4733 80.1485 17.2933 80.2819 17.08H80.4819L80.5019 19.88C80.8485 19.1867 81.3752 18.6267 82.0819 18.2C82.7885 17.7733 83.5352 17.56 84.3219 17.56C85.2152 17.56 85.9285 17.8533 86.4619 18.44C87.0085 19.0267 87.2819 19.8 87.2819 20.76V26.2C87.2819 26.68 87.4285 27.0667 87.7219 27.36C88.0152 27.6533 88.4019 27.8 88.8819 27.8H88.9019V28H82.8019V27.8H82.8219C83.3019 27.8 83.6885 27.6533 83.9819 27.36C84.2752 27.0667 84.4219 26.68 84.4219 26.2V20.56C84.4219 19.8933 84.2885 19.36 84.0219 18.96C83.7685 18.56 83.4285 18.36 83.0019 18.36C82.5885 18.36 82.1552 18.54 81.7019 18.9C81.2619 19.2467 80.8752 19.72 80.5419 20.32V26.2C80.5419 26.68 80.6885 27.0667 80.9819 27.36C81.2752 27.6533 81.6619 27.8 82.1419 27.8H82.1619V28H76.0419ZM92.0783 28.28C91.3849 28.28 90.8183 28.06 90.3783 27.62C89.9383 27.18 89.7183 26.6067 89.7183 25.9V18.2H88.0183V17.94C88.9383 17.8733 89.7583 17.58 90.4783 17.06C91.2116 16.54 91.8116 15.84 92.2783 14.96H92.5983V17.84H95.2583L95.0583 18.2H92.5983V25.46C92.5983 26.5267 92.9583 27.06 93.6783 27.06C93.9183 27.06 94.1916 26.9867 94.4983 26.84C94.8183 26.6933 95.1183 26.5 95.3983 26.26V26.46C94.9583 27.02 94.4383 27.4667 93.8383 27.8C93.2383 28.12 92.6516 28.28 92.0783 28.28ZM98.4802 28.28C97.6668 28.28 97.0135 28.06 96.5202 27.62C96.0268 27.18 95.7802 26.6 95.7802 25.88C95.7802 25.5733 95.8335 25.2867 95.9402 25.02C96.0468 24.74 96.2468 24.4667 96.5402 24.2C96.8468 23.9333 97.2668 23.66 97.8002 23.38C98.3335 23.0867 99.0402 22.78 99.9202 22.46L101.78 21.78V20.28C101.78 19.52 101.66 18.92 101.42 18.48C101.18 18.0267 100.847 17.8 100.42 17.8C99.9135 17.8133 99.4802 18.1467 99.1202 18.8C98.7735 19.4533 98.5402 20.36 98.4202 21.52L96.2602 20.28C96.4868 19.7333 96.8335 19.2533 97.3002 18.84C97.7668 18.4267 98.3002 18.1067 98.9002 17.88C99.5135 17.6533 100.153 17.54 100.82 17.54C101.953 17.54 102.873 17.86 103.58 18.5C104.3 19.1267 104.66 19.9867 104.66 21.08V25.9C104.66 26.6733 104.92 27.06 105.44 27.06C105.747 27.06 106.047 26.8933 106.34 26.56L106.5 26.7C106.153 27.1667 105.733 27.5467 105.24 27.84C104.747 28.1333 104.267 28.28 103.8 28.28C103.293 28.28 102.853 28.1067 102.48 27.76C102.12 27.4133 101.893 26.9533 101.8 26.38C101.147 27.0467 100.573 27.5333 100.08 27.84C99.6002 28.1333 99.0668 28.28 98.4802 28.28ZM99.9802 27.04C100.273 27.04 100.553 26.9667 100.82 26.82C101.1 26.6733 101.413 26.4333 101.76 26.1L101.78 22.04L100.98 22.34C100.3 22.5933 99.7802 22.8533 99.4202 23.12C99.0602 23.3733 98.8068 23.66 98.6602 23.98C98.5268 24.3 98.4602 24.6667 98.4602 25.08C98.4602 25.6533 98.6002 26.1267 98.8802 26.5C99.1735 26.86 99.5402 27.04 99.9802 27.04ZM106.176 28V27.8C106.656 27.8 107.042 27.66 107.336 27.38C107.642 27.0867 107.796 26.6933 107.796 26.2V14.8C107.796 14.32 107.642 13.9333 107.336 13.64C107.042 13.3467 106.656 13.2 106.176 13.2V13H108.216C108.896 13 109.416 12.9267 109.776 12.78C110.109 12.6333 110.342 12.4533 110.476 12.24H110.676V26.2C110.676 26.6933 110.822 27.0867 111.116 27.38C111.422 27.66 111.816 27.8 112.296 27.8V28H106.176Z" fill="#FF7F24"/>
<path d="M9.42279 1.4344C8.88011 1.90446 9.32245 2.49773 11.2351 3.80909C11.8145 4.19238 14.084 5.85283 16.2938 7.50241C20.5555 10.6493 21.5857 11.1701 20.076 9.44364C19.2936 8.51053 17.4902 7.03978 13.7497 4.22233C10.2175 1.58484 9.65497 1.21079 9.42279 1.4344Z" fill="#FC7210"/>
<path d="M9.82294 8.18831C5.18576 6.32671 3.92654 5.94361 3.6955 6.36518C3.60309 6.53382 4.10688 7.09498 4.35707 7.0786C4.51207 7.07584 12.0714 10.4073 14.4219 11.5201C15.5626 12.0794 16.0613 12.0896 16.133 11.5588C16.1845 11.1046 13.4174 9.63193 9.82294 8.18831Z" fill="#FC7210"/>
<path d="M11.4051 13.7043C10.1688 13.3995 2.99848 12.7591 2.15874 12.8909C1.72582 12.9607 1.28804 13.1593 1.18638 13.3448C0.899892 13.8676 1.77402 14.1931 4.05408 14.434C5.16038 14.536 7.19188 14.7503 8.55437 14.9049C11.8978 15.2461 13.2917 15.0233 12.6241 14.2408C12.3853 13.9564 12.4022 13.9657 11.4051 13.7043Z" fill="#FC7210"/>
<path d="M124.997 25.8809C121.025 24.3539 115.673 22.8567 115.172 23.1245C114.106 23.6869 114.966 24.3036 118.185 25.2617C119.7 25.6902 121.99 26.3784 123.26 26.7595C125.752 27.4898 126.51 27.6001 126.754 27.2315C126.871 27.0553 126.722 26.8636 126.15 26.5076C125.707 26.2366 125.205 25.9497 124.997 25.8809Z" fill="#FC7210"/>
<path d="M117.87 29.3215C114.698 27.494 113.476 27.0754 113.093 27.6523C112.753 28.1651 113.479 28.6701 117.116 30.5285C119.081 31.532 121.537 32.8385 122.573 33.4334C124.586 34.6075 125.072 34.7451 124.959 34.1854C124.872 33.7589 121.085 31.1542 117.87 29.3215Z" fill="#FC7210"/>
<path d="M112.189 30.9981C112.093 31.0036 111.896 31.1961 111.768 31.3884C111.439 31.8851 111.771 32.4284 113.551 34.371C114.337 35.2385 115.76 36.9206 116.68 38.1079C118.878 40.8816 119.247 41.1261 119.142 39.7876C119.06 38.9718 118.215 37.6031 116.177 35.005C113.775 31.9812 112.679 30.885 112.189 30.9981Z" fill="#FC7210"/>
</g>
<defs>
<clipPath id="clip0_918_349">
<rect width="128.969" height="41.4834" fill="white"/>
</clipPath>
</defs>
</svg>
